# xmcd
#
# Track frame offsets:
#	150
#	13080
#	27222
#	46597
#	53937
#	69560
#	78682
#	88950
#	97232
#	113842
#	128892
#	139242
#	155152
#	164427
#
# Disc length: 2374
#
# Revision: 1
# Processed by: cddbd v1.5.1PL0 Copyright (c) Steve Scherf et al.
# Submitted via: CDex 1.51
# Normalized: r0:TRMNUM
#
DISCID=c609440e
DTITLE=Frying W Ranch - America the Beautiful - 1893-1993
DYEAR=1993
DGENRE=Country
TTITLE0=So Long the Red River Valley
TTITLE1=Blue Prairie
TTITLE2=If You Want to be a Cowboy
TTITLE3=Fiddler's Dream
TTITLE4=Along the Cimarron
TTITLE5=She Taught Me How to Yodel
TTITLE6=Rawhide
TTITLE7=Little Rock Getaway
TTITLE8=Someday Soon
TTITLE9=Cattle Call
TTITLE10=12th Street Rag
TTITLE11=Colorado
TTITLE12=Saturday Night Yodel
TTITLE13=America the Beautiful
EXTD=YEAR: 1993
EXTT0=
EXTT1=
EXTT2=
EXTT3=
EXTT4=
EXTT5=
EXTT6=
EXTT7=
EXTT8=
EXTT9=
EXTT10=
EXTT11=
EXTT12=
EXTT13=
PLAYORDER=
